<svg width="101" height="37" viewBox="0 0 101 37" fill="none" xmlns="http://www.w3.org/2000/svg">
<path d="M12.2787 6.56271H10.1395V7.6323H12.2787V6.56271Z" fill="black"/>
<path d="M12.2787 8.70187H10.1395V9.77146H12.2787V8.70187Z" fill="black"/>
<path d="M12.2787 10.841H10.1395V11.9106H12.2787V10.841Z" fill="black"/>
<path d="M19.7658 7.0975H18.6962C18.6959 7.38107 18.5831 7.65293 18.3826 7.85344C18.1821 8.05396 17.9102 8.16675 17.6266 8.16709V9.23667C18.1938 9.23603 18.7375 9.01045 19.1386 8.60942C19.5396 8.20839 19.7652 7.66465 19.7658 7.0975Z" fill="black"/>
<path d="M22.4398 9.77146V8.70188C22.1563 8.70154 21.8844 8.58875 21.6839 8.38823C21.4834 8.18772 21.3706 7.91586 21.3702 7.63229H20.3007C20.3013 8.19944 20.5269 8.74318 20.9279 9.14421C21.3289 9.54524 21.8727 9.77082 22.4398 9.77146Z" fill="black"/>
<path d="M28.0545 33.0505C27.1517 33.2146 26.2308 33.2557 25.3169 33.1728L16.0182 32.3274C15.8687 32.3138 15.7303 32.2431 15.6316 32.13C15.5329 32.0169 15.4816 31.8701 15.4884 31.7202C15.4952 31.5703 15.5595 31.4287 15.6679 31.325C15.7764 31.2212 15.9207 31.1633 16.0707 31.1632H23.2419C23.5965 31.1626 23.9365 31.0214 24.1871 30.7705C24.4378 30.5196 24.5787 30.1796 24.5789 29.8249V29.8124C24.5783 29.5314 24.4871 29.2581 24.3189 29.033L23.0944 27.401C23.0168 27.2972 22.9748 27.1711 22.9745 27.0415V26.9497C22.9745 26.8311 23.0097 26.7152 23.0756 26.6166C23.1414 26.518 23.2351 26.4411 23.3447 26.3957C23.4542 26.3503 23.5748 26.3385 23.6911 26.3616C23.8075 26.3847 23.9143 26.4418 23.9982 26.5257L26.3399 28.8674C26.3896 28.917 26.4485 28.9564 26.5134 28.9833C26.5783 29.0102 26.6478 29.024 26.7181 29.024H32.6008V27.9544H26.9395L24.7546 25.7693C24.6996 25.7145 24.6409 25.6634 24.5789 25.6166V13.515C24.5789 13.3732 24.5225 13.2372 24.4223 13.1369C24.322 13.0366 24.1859 12.9802 24.0441 12.9802H23.5093V11.3759H24.3115C24.8079 11.3759 25.284 11.1787 25.635 10.8276C25.9861 10.4766 26.1833 10.0005 26.1833 9.50409C26.1833 9.00766 25.9861 8.53157 25.635 8.18054C25.284 7.82952 24.8079 7.63231 24.3115 7.63231H24.2562C24.524 7.31148 24.6616 6.90191 24.6421 6.48449C24.6225 6.06708 24.4471 5.67218 24.1505 5.37783C23.8539 5.08347 23.4576 4.91105 23.0401 4.89464C22.6225 4.87823 22.214 5.01902 21.8952 5.28919C21.8446 4.75947 21.5984 4.26763 21.2047 3.9097C20.8109 3.55176 20.2979 3.35343 19.7658 3.35343C19.2336 3.35343 18.7206 3.55176 18.3269 3.9097C17.9331 4.26763 17.6869 4.75947 17.6363 5.28919C17.3175 5.01902 16.909 4.87823 16.4914 4.89464C16.0739 4.91105 15.6777 5.08347 15.3811 5.37783C15.0845 5.67218 14.909 6.06708 14.8895 6.48449C14.8699 6.90191 15.0076 7.31148 15.2753 7.63231H15.22C14.9425 7.63206 14.6684 7.69389 14.4178 7.81327V5.49315C14.4178 4.64213 14.0798 3.82597 13.478 3.22422C12.8763 2.62246 12.0601 2.28439 11.2091 2.28439C10.3581 2.28439 9.54191 2.62246 8.94016 3.22422C8.3384 3.82597 8.00033 4.64213 8.00033 5.49315V12.9802H7.46554C7.32371 12.9802 7.18768 13.0366 7.08739 13.1369C6.98709 13.2372 6.93075 13.3732 6.93075 13.515V15.8666L4.05898 18.3282H0.513245V19.3977H4.25679C4.38444 19.3977 4.50788 19.3521 4.6048 19.269L7.70446 16.6121C8.02312 16.3392 8.42885 16.1891 8.84845 16.189C8.89225 16.189 8.93507 16.202 8.97149 16.2263C9.00791 16.2507 9.03629 16.2853 9.05305 16.3257C9.06981 16.3662 9.07419 16.4107 9.06564 16.4537C9.05709 16.4967 9.03599 16.5361 9.00501 16.5671L7.08738 18.4848C7.01258 18.5596 6.96164 18.6549 6.94101 18.7586C6.92037 18.8624 6.93096 18.9699 6.97144 19.0676C7.01192 19.1653 7.08047 19.2489 7.16842 19.3076C7.25637 19.3664 7.35977 19.3977 7.46554 19.3977H13.0809C13.1518 19.3977 13.2198 19.4259 13.2699 19.4761C13.3201 19.5262 13.3483 19.5942 13.3483 19.6651C13.3483 19.7361 13.3201 19.8041 13.2699 19.8542C13.2198 19.9044 13.1518 19.9325 13.0809 19.9325H9.06992C8.92808 19.9325 8.79206 19.9889 8.69176 20.0892C8.59147 20.1895 8.53513 20.3255 8.53513 20.4673C8.53513 20.6092 8.59147 20.7452 8.69176 20.8455C8.79206 20.9458 8.92808 21.0021 9.06992 21.0021H14.6852C14.7562 21.0021 14.8242 21.0303 14.8743 21.0804C14.9245 21.1306 14.9526 21.1986 14.9526 21.2695C14.9526 21.3404 14.9245 21.4084 14.8743 21.4586C14.8242 21.5087 14.7562 21.5369 14.6852 21.5369H9.06992C8.92808 21.5369 8.79206 21.5933 8.69176 21.6935C8.59147 21.7938 8.53513 21.9299 8.53513 22.0717C8.53513 22.2135 8.59147 22.3496 8.69176 22.4499C8.79206 22.5501 8.92808 22.6065 9.06992 22.6065H13.6157C13.6866 22.6065 13.7546 22.6347 13.8047 22.6848C13.8549 22.735 13.883 22.803 13.883 22.8739C13.883 22.9448 13.8549 23.0128 13.8047 23.063C13.7546 23.1131 13.6866 23.1413 13.6157 23.1413H9.06992C8.92808 23.1413 8.79206 23.1976 8.69176 23.2979C8.59147 23.3982 8.53513 23.5342 8.53513 23.6761C8.53513 23.8179 8.59147 23.9539 8.69176 24.0542C8.79206 24.1545 8.92808 24.2109 9.06992 24.2109H11.7105C11.7187 24.2113 11.7264 24.2147 11.7323 24.2205C11.7381 24.2263 11.7417 24.234 11.7422 24.2422C11.7427 24.2504 11.7401 24.2585 11.735 24.265C11.7299 24.2714 11.7226 24.2758 11.7145 24.2772L8.04218 24.7362L4.40386 23.6967C4.35603 23.683 4.30653 23.6761 4.25679 23.6761H0.513245V24.7457H4.18192L6.93075 25.5311V30.6284H6.93202C6.93151 30.6986 6.94496 30.7683 6.97158 30.8333C6.9982 30.8984 7.03745 30.9575 7.08708 31.0072C7.13671 31.0569 7.19571 31.0963 7.26068 31.1231C7.32564 31.1499 7.39528 31.1635 7.46554 31.1632H14.5248C14.4348 31.4014 14.4011 31.6573 14.4263 31.9107C14.4515 32.1642 14.535 32.4084 14.6702 32.6242C14.8055 32.8401 14.9887 33.0217 15.2058 33.155C15.4228 33.2883 15.6677 33.3696 15.9214 33.3926L25.22 34.2382C25.5584 34.2691 25.8973 34.2845 26.2367 34.2844C26.9105 34.2844 27.5829 34.2238 28.2458 34.1033L32.6964 33.294L32.5051 32.2417L28.0545 33.0505ZM13.3483 10.8411C13.3484 10.6993 13.4048 10.5633 13.5051 10.4631C13.6053 10.3628 13.7413 10.3064 13.883 10.3063H14.9526C15.5198 10.3069 16.0635 10.5325 16.4645 10.9335C16.8656 11.3346 17.0912 11.8783 17.0918 12.4454C17.0916 12.5872 17.0352 12.7232 16.935 12.8234C16.8347 12.9237 16.6988 12.9801 16.557 12.9802H15.4874C14.9203 12.9796 14.3765 12.754 13.9755 12.353C13.5745 11.952 13.3489 11.4082 13.3483 10.8411ZM15.22 8.7019H16.557C16.6628 8.7019 16.7662 8.67054 16.8541 8.61178C16.9421 8.55301 17.0106 8.46949 17.0511 8.37176C17.0916 8.27404 17.1022 8.16651 17.0815 8.06277C17.0609 7.95903 17.01 7.86373 16.9352 7.78894L16.133 6.98675C16.0773 6.93107 16.0331 6.86496 16.003 6.79221C15.9729 6.71946 15.9573 6.64148 15.9573 6.56273C15.9573 6.48398 15.9729 6.406 16.003 6.33325C16.0331 6.2605 16.0773 6.19439 16.133 6.13871C16.1887 6.08302 16.2548 6.03885 16.3275 6.00872C16.4003 5.97858 16.4783 5.96307 16.557 5.96307C16.6358 5.96307 16.7137 5.97858 16.7865 6.00872C16.8592 6.03885 16.9253 6.08302 16.981 6.13871L17.7832 6.94089C17.858 7.01569 17.9533 7.06663 18.057 7.08726C18.1608 7.1079 18.2683 7.09731 18.366 7.05683C18.4638 7.01635 18.5473 6.9478 18.6061 6.85985C18.6648 6.7719 18.6962 6.6685 18.6962 6.56273V5.49315C18.6962 5.20947 18.8089 4.93742 19.0094 4.73684C19.21 4.53625 19.4821 4.42356 19.7658 4.42356C20.0494 4.42356 20.3215 4.53625 20.5221 4.73684C20.7227 4.93742 20.8353 5.20947 20.8353 5.49315V6.56273C20.8353 6.6685 20.8667 6.7719 20.9255 6.85985C20.9842 6.9478 21.0678 7.01635 21.1655 7.05683C21.2632 7.09731 21.3707 7.1079 21.4745 7.08726C21.5782 7.06663 21.6735 7.01569 21.7483 6.94089L22.5505 6.13871C22.6062 6.08302 22.6723 6.03885 22.745 6.00872C22.8178 5.97858 22.8958 5.96307 22.9745 5.96307C23.0533 5.96307 23.1312 5.97858 23.204 6.00872C23.2767 6.03885 23.3428 6.08302 23.3985 6.13871C23.4542 6.19439 23.4984 6.2605 23.5285 6.33325C23.5587 6.406 23.5742 6.48398 23.5742 6.56273C23.5742 6.64148 23.5587 6.71946 23.5285 6.79221C23.4984 6.86496 23.4542 6.93107 23.3985 6.98675L22.5963 7.78894C22.5215 7.86373 22.4706 7.95903 22.45 8.06277C22.4293 8.16651 22.4399 8.27404 22.4804 8.37176C22.5209 8.46949 22.5894 8.55301 22.6774 8.61178C22.7653 8.67054 22.8687 8.7019 22.9745 8.7019H24.3115C24.5242 8.7019 24.7283 8.78641 24.8787 8.93685C25.0292 9.08729 25.1137 9.29133 25.1137 9.50409C25.1137 9.71684 25.0292 9.92088 24.8787 10.0713C24.7283 10.2218 24.5242 10.3063 24.3115 10.3063H22.9745C22.8327 10.3063 22.6966 10.3626 22.5964 10.4629C22.4961 10.5632 22.4397 10.6992 22.4397 10.8411V11.1259C21.8157 10.5655 20.9967 10.2723 20.1588 10.3094C19.3208 10.3466 18.531 10.711 17.959 11.3245C17.7298 10.7119 17.3192 10.1839 16.782 9.81081C16.2448 9.43776 15.6066 9.23747 14.9526 9.23669H14.4646C14.52 9.08049 14.6223 8.94524 14.7575 8.84949C14.8928 8.75374 15.0543 8.70218 15.22 8.7019ZM22.372 12.9802H18.2291C18.3475 12.5209 18.6153 12.1139 18.9903 11.8233C19.3652 11.5327 19.8262 11.375 20.3006 11.375C20.7749 11.375 21.2359 11.5327 21.6108 11.8233C21.9858 12.1139 22.2536 12.5209 22.372 12.9802ZM9.06992 5.49315C9.06992 4.9258 9.29529 4.3817 9.69647 3.98053C10.0976 3.57935 10.6417 3.35398 11.2091 3.35398C11.7764 3.35398 12.3205 3.57935 12.7217 3.98053C13.1229 4.3817 13.3483 4.9258 13.3483 5.49315V9.32867C13.0357 9.43958 12.7651 9.64448 12.5736 9.91525C12.3821 10.186 12.2791 10.5094 12.2787 10.8411C12.2781 11.6309 12.5701 12.393 13.0983 12.9802H9.06992V5.49315ZM10.1395 14.0498H11.2091V18.3282H10.1395V14.0498ZM8.84845 15.1194C8.56074 15.1195 8.27474 15.1636 8.00033 15.25V14.0498H9.06992V15.1398C8.99682 15.1267 8.92272 15.1198 8.84845 15.1194ZM9.06992 18.0149V18.3282H8.7566L9.06992 18.0149ZM10.1395 25.552L11.2091 25.4183V29.3372L10.1395 28.2676V25.552ZM8.06665 25.8111L9.06992 25.6857V28.2677L8.00033 29.3373V25.8152C8.0225 25.8152 8.04465 25.8138 8.06665 25.8111ZM8.7566 30.0936L9.60471 29.2455L10.4528 30.0936H8.7566ZM12.2787 25.1879C12.4415 25.09 12.5763 24.9516 12.67 24.7863C12.7637 24.6209 12.8131 24.4342 12.8135 24.2442C12.8135 24.233 12.8135 24.2219 12.8129 24.2107H13.6157C13.8157 24.2106 14.0131 24.1657 14.1935 24.0792C14.3738 23.9927 14.5325 23.8668 14.6578 23.7109C14.7831 23.5549 14.8718 23.3729 14.9174 23.1781C14.963 22.9834 14.9643 22.7809 14.9213 22.5855C15.2502 22.5265 15.545 22.3466 15.7478 22.0811C15.9506 21.8156 16.0467 21.4838 16.0171 21.151C15.9875 20.8182 15.8343 20.5086 15.5878 20.2831C15.3413 20.0576 15.0193 19.9325 14.6852 19.9325H14.3911C14.4306 19.7383 14.4264 19.5377 14.3789 19.3452C14.3313 19.1528 14.2416 18.9733 14.1162 18.8198C13.9909 18.6663 13.8329 18.5425 13.6539 18.4575C13.4748 18.3725 13.2791 18.3283 13.0809 18.3282H12.2787V14.0498H23.5093V25.2821C23.0784 25.2994 22.6708 25.4825 22.3718 25.7933C22.0728 26.1041 21.9055 26.5185 21.9049 26.9497V27.0415C21.9057 27.4026 22.0229 27.7538 22.2392 28.0431L23.4636 29.6748C23.4933 29.7146 23.5094 29.7628 23.5095 29.8124V29.8249C23.5096 29.896 23.4815 29.9642 23.4313 30.0146C23.3811 30.065 23.313 30.0934 23.2419 30.0936H12.2787V25.1879Z" fill="black"/>
<path d="M48.1235 14.2844H45.897L45.9116 13.1345H48.1235C48.8853 13.1345 49.52 12.9758 50.0278 12.6584C50.5356 12.3362 50.9165 11.8869 51.1704 11.3108C51.4292 10.7297 51.5586 10.051 51.5586 9.27463V8.62277C51.5586 8.01242 51.4854 7.47043 51.3389 6.9968C51.1924 6.51828 50.9775 6.11545 50.6943 5.7883C50.4111 5.45627 50.0645 5.2048 49.6543 5.03391C49.249 4.86301 48.7827 4.77756 48.2554 4.77756H45.853V3.62033H48.2554C48.9536 3.62033 49.5908 3.73752 50.167 3.97189C50.7432 4.20139 51.2388 4.53586 51.6538 4.97531C52.0737 5.40988 52.396 5.93723 52.6206 6.55734C52.8452 7.17258 52.9575 7.86594 52.9575 8.63742V9.27463C52.9575 10.0461 52.8452 10.7419 52.6206 11.362C52.396 11.9773 52.0713 12.5022 51.6465 12.9367C51.2266 13.3713 50.7188 13.7058 50.123 13.9402C49.5322 14.1696 48.8657 14.2844 48.1235 14.2844ZM46.6514 3.62033V14.2844H45.2378V3.62033H46.6514ZM58.165 14.4309C57.6133 14.4309 57.1128 14.3381 56.6636 14.1526C56.2192 13.9621 55.8359 13.696 55.5137 13.3542C55.1963 13.0124 54.9521 12.6071 54.7812 12.1384C54.6104 11.6696 54.5249 11.157 54.5249 10.6003V10.2927C54.5249 9.64816 54.6201 9.07443 54.8105 8.5715C55.001 8.06369 55.2598 7.634 55.5869 7.28244C55.9141 6.93088 56.2852 6.66476 56.7002 6.4841C57.1152 6.30344 57.5449 6.2131 57.9893 6.2131C58.5557 6.2131 59.0439 6.31076 59.4541 6.50607C59.8691 6.70139 60.2085 6.97482 60.4722 7.32639C60.7358 7.67307 60.9312 8.08322 61.0581 8.55685C61.1851 9.0256 61.2485 9.5383 61.2485 10.0949V10.7029H55.3306V9.59689H59.8936V9.49435C59.874 9.14279 59.8008 8.80099 59.6738 8.46896C59.5518 8.13693 59.3564 7.86349 59.0879 7.64865C58.8193 7.43381 58.4531 7.32639 57.9893 7.32639C57.6816 7.32639 57.3984 7.3923 57.1396 7.52414C56.8809 7.65109 56.6587 7.84152 56.4731 8.09543C56.2876 8.34933 56.1436 8.65939 56.041 9.0256C55.9385 9.39182 55.8872 9.81418 55.8872 10.2927V10.6003C55.8872 10.9763 55.9385 11.3303 56.041 11.6623C56.1484 11.9895 56.3022 12.2776 56.5024 12.5266C56.7075 12.7756 56.9541 12.9709 57.2422 13.1125C57.5352 13.2541 57.8672 13.3249 58.2383 13.3249C58.7168 13.3249 59.1221 13.2273 59.4541 13.032C59.7861 12.8366 60.0767 12.5754 60.3257 12.2483L61.146 12.9001C60.9751 13.1589 60.7578 13.4055 60.4941 13.6399C60.2305 13.8742 59.9058 14.0647 59.52 14.2112C59.1392 14.3576 58.6875 14.4309 58.165 14.4309ZM64.3027 3.03439V14.2844H62.9404V3.03439H64.3027ZM67.9502 6.35959V14.2844H66.5879V6.35959H67.9502ZM66.4854 4.25754C66.4854 4.03781 66.5513 3.85226 66.6831 3.7009C66.8198 3.54953 67.02 3.47385 67.2837 3.47385C67.5425 3.47385 67.7402 3.54953 67.877 3.7009C68.0186 3.85226 68.0894 4.03781 68.0894 4.25754C68.0894 4.4675 68.0186 4.64816 67.877 4.79953C67.7402 4.94601 67.5425 5.01926 67.2837 5.01926C67.02 5.01926 66.8198 4.94601 66.6831 4.79953C66.5513 4.64816 66.4854 4.4675 66.4854 4.25754ZM72.5352 13.0612L74.7031 6.35959H76.0874L73.2383 14.2844H72.3301L72.5352 13.0612ZM70.7261 6.35959L72.96 13.0979L73.1138 14.2844H72.2056L69.3345 6.35959H70.7261ZM80.5771 14.4309C80.0254 14.4309 79.5249 14.3381 79.0757 14.1526C78.6313 13.9621 78.248 13.696 77.9258 13.3542C77.6084 13.0124 77.3643 12.6071 77.1934 12.1384C77.0225 11.6696 76.937 11.157 76.937 10.6003V10.2927C76.937 9.64816 77.0322 9.07443 77.2227 8.5715C77.4131 8.06369 77.6719 7.634 77.999 7.28244C78.3262 6.93088 78.6973 6.66476 79.1123 6.4841C79.5273 6.30344 79.957 6.2131 80.4014 6.2131C80.9678 6.2131 81.4561 6.31076 81.8662 6.50607C82.2812 6.70139 82.6206 6.97482 82.8843 7.32639C83.1479 7.67307 83.3433 8.08322 83.4702 8.55685C83.5972 9.0256 83.6606 9.5383 83.6606 10.0949V10.7029H77.7427V9.59689H82.3057V9.49435C82.2861 9.14279 82.2129 8.80099 82.0859 8.46896C81.9639 8.13693 81.7686 7.86349 81.5 7.64865C81.2314 7.43381 80.8652 7.32639 80.4014 7.32639C80.0938 7.32639 79.8105 7.3923 79.5518 7.52414C79.293 7.65109 79.0708 7.84152 78.8853 8.09543C78.6997 8.34933 78.5557 8.65939 78.4531 9.0256C78.3506 9.39182 78.2993 9.81418 78.2993 10.2927V10.6003C78.2993 10.9763 78.3506 11.3303 78.4531 11.6623C78.5605 11.9895 78.7144 12.2776 78.9146 12.5266C79.1196 12.7756 79.3662 12.9709 79.6543 13.1125C79.9473 13.2541 80.2793 13.3249 80.6504 13.3249C81.1289 13.3249 81.5342 13.2273 81.8662 13.032C82.1982 12.8366 82.4888 12.5754 82.7378 12.2483L83.5581 12.9001C83.3872 13.1589 83.1699 13.4055 82.9062 13.6399C82.6426 13.8742 82.3179 14.0647 81.9321 14.2112C81.5513 14.3576 81.0996 14.4309 80.5771 14.4309ZM86.5977 7.60471V14.2844H85.2427V6.35959H86.561L86.5977 7.60471ZM89.0732 6.31564L89.0659 7.57541C88.9536 7.55099 88.8462 7.53635 88.7437 7.53146C88.646 7.5217 88.5337 7.51682 88.4067 7.51682C88.0942 7.51682 87.8184 7.56564 87.5791 7.6633C87.3398 7.76096 87.1372 7.89767 86.9712 8.07346C86.8052 8.24924 86.6733 8.4592 86.5757 8.70334C86.4829 8.9426 86.4219 9.20627 86.3926 9.49435L86.0117 9.71408C86.0117 9.23557 86.0581 8.78635 86.1509 8.36642C86.2485 7.9465 86.3975 7.57541 86.5977 7.25314C86.7979 6.92599 87.0518 6.67209 87.3594 6.49142C87.6719 6.30588 88.043 6.2131 88.4727 6.2131C88.5703 6.2131 88.6826 6.22531 88.8096 6.24973C88.9365 6.26926 89.0244 6.29123 89.0732 6.31564ZM92.6841 13.4641L94.8887 6.35959H96.3389L93.1602 15.5075C93.0869 15.7029 92.9893 15.9128 92.8672 16.1374C92.75 16.3669 92.5986 16.5842 92.4131 16.7893C92.2275 16.9944 92.0029 17.1604 91.7393 17.2873C91.4805 17.4192 91.1704 17.4851 90.8091 17.4851C90.7017 17.4851 90.5649 17.4704 90.3989 17.4411C90.2329 17.4118 90.1157 17.3874 90.0474 17.3679L90.04 16.2693C90.0791 16.2741 90.1401 16.279 90.2231 16.2839C90.311 16.2937 90.3721 16.2986 90.4062 16.2986C90.7139 16.2986 90.9751 16.257 91.1899 16.174C91.4048 16.0959 91.5854 15.9616 91.7319 15.7712C91.8833 15.5857 92.0127 15.3293 92.1201 15.0022L92.6841 13.4641ZM91.0654 6.35959L93.1235 12.5119L93.4751 13.9402L92.501 14.4382L89.5859 6.35959H91.0654ZM46.6514 21.6203V32.2844H45.2378V21.6203H46.6514ZM51.1191 26.4177V27.5749H46.3438V26.4177H51.1191ZM51.8442 21.6203V22.7776H46.3438V21.6203H51.8442ZM52.8037 28.4099V28.2414C52.8037 27.6701 52.8867 27.1404 53.0527 26.6521C53.2188 26.1589 53.458 25.7317 53.7705 25.3703C54.083 25.0041 54.4614 24.7209 54.9058 24.5207C55.3501 24.3156 55.8481 24.2131 56.3999 24.2131C56.9565 24.2131 57.457 24.3156 57.9014 24.5207C58.3506 24.7209 58.7314 25.0041 59.0439 25.3703C59.3613 25.7317 59.603 26.1589 59.769 26.6521C59.9351 27.1404 60.0181 27.6701 60.0181 28.2414V28.4099C60.0181 28.9812 59.9351 29.511 59.769 29.9992C59.603 30.4875 59.3613 30.9148 59.0439 31.281C58.7314 31.6423 58.353 31.9255 57.9087 32.1306C57.4692 32.3308 56.9712 32.4309 56.4146 32.4309C55.8579 32.4309 55.3574 32.3308 54.9131 32.1306C54.4688 31.9255 54.0879 31.6423 53.7705 31.281C53.458 30.9148 53.2188 30.4875 53.0527 29.9992C52.8867 29.511 52.8037 28.9812 52.8037 28.4099ZM54.1587 28.2414V28.4099C54.1587 28.8054 54.2051 29.1789 54.2979 29.5305C54.3906 29.8772 54.5298 30.1848 54.7153 30.4533C54.9058 30.7219 55.1426 30.9343 55.4258 31.0905C55.709 31.2419 56.0386 31.3176 56.4146 31.3176C56.7856 31.3176 57.1104 31.2419 57.3887 31.0905C57.6719 30.9343 57.9062 30.7219 58.0918 30.4533C58.2773 30.1848 58.4165 29.8772 58.5093 29.5305C58.6069 29.1789 58.6558 28.8054 58.6558 28.4099V28.2414C58.6558 27.8508 58.6069 27.4821 58.5093 27.1355C58.4165 26.7839 58.2749 26.4738 58.0845 26.2053C57.8989 25.9319 57.6646 25.717 57.3813 25.5608C57.103 25.4045 56.7759 25.3264 56.3999 25.3264C56.0288 25.3264 55.7017 25.4045 55.4185 25.5608C55.1401 25.717 54.9058 25.9319 54.7153 26.2053C54.5298 26.4738 54.3906 26.7839 54.2979 27.1355C54.2051 27.4821 54.1587 27.8508 54.1587 28.2414ZM61.3584 28.4099V28.2414C61.3584 27.6701 61.4414 27.1404 61.6074 26.6521C61.7734 26.1589 62.0127 25.7317 62.3252 25.3703C62.6377 25.0041 63.0161 24.7209 63.4604 24.5207C63.9048 24.3156 64.4028 24.2131 64.9546 24.2131C65.5112 24.2131 66.0117 24.3156 66.4561 24.5207C66.9053 24.7209 67.2861 25.0041 67.5986 25.3703C67.916 25.7317 68.1577 26.1589 68.3237 26.6521C68.4897 27.1404 68.5728 27.6701 68.5728 28.2414V28.4099C68.5728 28.9812 68.4897 29.511 68.3237 29.9992C68.1577 30.4875 67.916 30.9148 67.5986 31.281C67.2861 31.6423 66.9077 31.9255 66.4634 32.1306C66.0239 32.3308 65.5259 32.4309 64.9692 32.4309C64.4126 32.4309 63.9121 32.3308 63.4678 32.1306C63.0234 31.9255 62.6426 31.6423 62.3252 31.281C62.0127 30.9148 61.7734 30.4875 61.6074 29.9992C61.4414 29.511 61.3584 28.9812 61.3584 28.4099ZM62.7134 28.2414V28.4099C62.7134 28.8054 62.7598 29.1789 62.8525 29.5305C62.9453 29.8772 63.0845 30.1848 63.27 30.4533C63.4604 30.7219 63.6973 30.9343 63.9805 31.0905C64.2637 31.2419 64.5933 31.3176 64.9692 31.3176C65.3403 31.3176 65.665 31.2419 65.9434 31.0905C66.2266 30.9343 66.4609 30.7219 66.6465 30.4533C66.832 30.1848 66.9712 29.8772 67.064 29.5305C67.1616 29.1789 67.2104 28.8054 67.2104 28.4099V28.2414C67.2104 27.8508 67.1616 27.4821 67.064 27.1355C66.9712 26.7839 66.8296 26.4738 66.6392 26.2053C66.4536 25.9319 66.2192 25.717 65.936 25.5608C65.6577 25.4045 65.3306 25.3264 64.9546 25.3264C64.5835 25.3264 64.2563 25.4045 63.9731 25.5608C63.6948 25.717 63.4604 25.9319 63.27 26.2053C63.0845 26.4738 62.9453 26.7839 62.8525 27.1355C62.7598 27.4821 62.7134 27.8508 62.7134 28.2414ZM75.2671 30.7463V21.0344H76.6294V32.2844H75.3843L75.2671 30.7463ZM69.9351 28.4099V28.2561C69.9351 27.6506 70.0083 27.1013 70.1548 26.6081C70.3062 26.1101 70.5186 25.6828 70.792 25.3264C71.0703 24.9699 71.3999 24.6965 71.7808 24.5061C72.1665 24.3108 72.5962 24.2131 73.0698 24.2131C73.5679 24.2131 74.0024 24.301 74.3735 24.4768C74.7495 24.6477 75.0669 24.8991 75.3257 25.2312C75.5894 25.5583 75.7969 25.9538 75.9482 26.4177C76.0996 26.8816 76.2046 27.4065 76.2632 27.9924V28.6662C76.2095 29.2473 76.1045 29.7697 75.9482 30.2336C75.7969 30.6975 75.5894 31.093 75.3257 31.4201C75.0669 31.7473 74.7495 31.9987 74.3735 32.1745C73.9976 32.3454 73.5581 32.4309 73.0552 32.4309C72.5913 32.4309 72.1665 32.3308 71.7808 32.1306C71.3999 31.9304 71.0703 31.6496 70.792 31.2883C70.5186 30.927 70.3062 30.5022 70.1548 30.0139C70.0083 29.5207 69.9351 28.9861 69.9351 28.4099ZM71.2974 28.2561V28.4099C71.2974 28.8054 71.3364 29.1765 71.4146 29.5232C71.4976 29.8698 71.6245 30.175 71.7954 30.4387C71.9663 30.7024 72.1836 30.9099 72.4473 31.0612C72.7109 31.2077 73.0259 31.281 73.3921 31.281C73.8413 31.281 74.21 31.1858 74.498 30.9953C74.791 30.8049 75.0254 30.5534 75.2012 30.2409C75.377 29.9284 75.5137 29.5891 75.6113 29.2229V27.4577C75.5527 27.1892 75.4673 26.9304 75.355 26.6814C75.2476 26.4275 75.106 26.2029 74.9302 26.0075C74.7593 25.8073 74.5469 25.6487 74.293 25.5315C74.0439 25.4143 73.7485 25.3557 73.4067 25.3557C73.0356 25.3557 72.7158 25.4338 72.4473 25.5901C72.1836 25.7414 71.9663 25.9514 71.7954 26.2199C71.6245 26.4836 71.4976 26.7912 71.4146 27.1428C71.3364 27.4895 71.2974 27.8606 71.2974 28.2561Z" fill="black"/>
</svg>
